# xmcd
#
# Track frame offsets:
#	150
#	22569
#	41937
#	66261
#	88524
#	107117
#	129026
#	154827
#	173798
#	196518
#	217546
#	237839
#	263759
#
# Disc length: 3725 seconds
# Revision: 1
# Processed by: cddbd v1.5.2PL0 Copyright (c) Steve Scherf et al.
# Submitted via: dBpowerAMP V12.0
#
DISCID=970e8b0d
DTITLE=Mike Zito and The Wheel - Gone to Texas
DYEAR=2013
DGENRE=Blues Texas
TTITLE0=Gone to Texas
TTITLE1=Rainbow Bridge
TTITLE2=I Never Knew a Hurricane
TTITLE3=Don't Think Cause You're Pretty
TTITLE4=Death Row
TTITLE5=Don't Break a Leg
TTITLE6=Take It Easy
TTITLE7=The Road Never Ends
TTITLE8=Subtraction Blues
TTITLE9=Hell on Me
TTITLE10=Voices in Dallas
TTITLE11=Wings of Freedom
TTITLE12=Let Your Light Shine on Me
EXTD=
EXTT0=
EXTT1=
EXTT2=
EXTT3=
EXTT4=
EXTT5=
EXTT6=
EXTT7=
EXTT8=
EXTT9=
EXTT10=
EXTT11=
EXTT12=
PLAYORDER=
